# xmcd
#
# Track frame offsets:
# 150
# 18387
# 38977
# 51954
# 70566
# 89060
# 110878
# 129079
# 146278
# 159635
# 172927
# 186776
#
# Disc length: 2619 seconds
#
#
# Revision: 0
# Processed by: cddbd v1.5.1PL2 Copyright (c) Steve Scherf et al.
# Submitted via: FreeRIP 2.944 
#
DISCID=9f0a390c
DTITLE=Kasey Chambers - The Captain
DYEAR=2000
DGENRE=Country
TTITLE0=Cry Like A Baby
TTITLE1=The Captain
TTITLE2=This Flower
TTITLE3=You Got the Car
TTITLE4=These Pines
TTITLE5=Don't Talk Back
TTITLE6=Southern Kind of Life
TTITLE7=Mr Bayliss
TTITLE8=The Hard Way
TTITLE9=Last Hard Bible
TTITLE10=Don't Go
TTITLE11=We're All Gonna Die Someday
EXTD=
EXTT0=
EXTT1=
EXTT2=
EXTT3=
EXTT4=
EXTT5=
EXTT6=
EXTT7=
EXTT8=
EXTT9=
EXTT10=
EXTT11=
PLAYORDER=
